<?xml version="1.0" standalone="no"?>
<!DOCTYPE svg PUBLIC "-//W3C//DTD SVG 20010904//EN"
 "http://www.w3.org/TR/2001/REC-SVG-20010904/DTD/svg10.dtd">
<svg version="1.0" xmlns="http://www.w3.org/2000/svg"
 width="500.000000pt" height="500.000000pt" viewBox="0 0 500.000000 500.000000"
 preserveAspectRatio="xMidYMid meet">
<metadata>
Created by potrace 1.14, written by Peter Selinger 2001-2017
</metadata>
<g transform="translate(0.000000,500.000000) scale(0.100000,-0.100000)"
fill="#000000" stroke="none">
<path d="M0 2500 l0 -2500 2500 0 2500 0 0 2500 0 2500 -2500 0 -2500 0 0
-2500z m3285 1778 c-11 -52 -815 -3509 -826 -3550 l-10 -38 -368 0 -369 0 14
62 c17 83 813 3518 820 3541 5 16 32 17 375 17 l371 0 -7 -32z m-1752 -765 c9
-124 9 -502 1 -569 l-6 -50 -342 -192 c-187 -105 -340 -195 -340 -199 1 -4
154 -94 340 -199 l339 -191 8 -54 c10 -63 3 -646 -7 -657 -10 -10 -43 9 -634
366 l-522 316 2 426 3 425 560 337 c308 185 567 337 576 338 13 0 17 -17 22
-97z m2532 -241 l560 -337 3 -425 2 -426 -522 -316 c-591 -357 -624 -376 -634
-366 -10 11 -17 594 -7 657 l8 54 339 191 c186 105 339 195 340 199 0 4 -153
94 -340 199 l-342 192 -6 50 c-8 67 -8 445 1 569 5 80 9 97 22 97 9 -1 268
-153 576 -338z"/>
</g>
</svg>
